<mxfile host="app.diagrams.net" modified="2021-09-03T12:28:15.859Z" agent="5.0 (Macintosh; Intel Mac OS X 10_15_7) AppleWebKit/605.1.15 (KHTML, like Gecko) Version/14.1.2 Safari/605.1.15" etag="2TLy66V10m2n5tOmWCNr" version="15.0.6" type="github">
  <diagram id="Xceh6YoExhiWnQSg53VG" name="Page-1">
    <mxGraphModel dx="946" dy="620" grid="1" gridSize="10" guides="1" tooltips="1" connect="1" arrows="1" fold="1" page="1" pageScale="1" pageWidth="827" pageHeight="1169" math="0" shadow="0">
      <root>
        <mxCell id="0" />
        <mxCell id="1" parent="0" />
        <mxCell id="GJXDeXxpzOyA6pzPRUs3-5" value="module application" style="shape=umlLifeline;perimeter=lifelinePerimeter;whiteSpace=wrap;html=1;container=1;collapsible=0;recursiveResize=0;outlineConnect=0;" parent="1" vertex="1">
          <mxGeometry x="180" y="40" width="100" height="580" as="geometry" />
        </mxCell>
        <mxCell id="GJXDeXxpzOyA6pzPRUs3-6" value="" style="html=1;points=[];perimeter=orthogonalPerimeter;" parent="GJXDeXxpzOyA6pzPRUs3-5" vertex="1">
          <mxGeometry x="45" y="100" width="10" height="480" as="geometry" />
        </mxCell>
        <mxCell id="GJXDeXxpzOyA6pzPRUs3-7" value="portal application" style="shape=umlLifeline;perimeter=lifelinePerimeter;whiteSpace=wrap;html=1;container=1;collapsible=0;recursiveResize=0;outlineConnect=0;" parent="1" vertex="1">
          <mxGeometry x="40" y="40" width="100" height="580" as="geometry" />
        </mxCell>
        <mxCell id="GJXDeXxpzOyA6pzPRUs3-8" value="authorization service" style="shape=umlLifeline;perimeter=lifelinePerimeter;whiteSpace=wrap;html=1;container=1;collapsible=0;recursiveResize=0;outlineConnect=0;" parent="1" vertex="1">
          <mxGeometry x="320" y="40" width="100" height="580" as="geometry" />
        </mxCell>
        <mxCell id="GJXDeXxpzOyA6pzPRUs3-9" value="FHIR resource service" style="shape=umlLifeline;perimeter=lifelinePerimeter;whiteSpace=wrap;html=1;container=1;collapsible=0;recursiveResize=0;outlineConnect=0;" parent="1" vertex="1">
          <mxGeometry x="460" y="40" width="100" height="580" as="geometry" />
        </mxCell>
        <mxCell id="GJXDeXxpzOyA6pzPRUs3-10" value="start (launch, iss)" style="html=1;verticalAlign=bottom;startArrow=oval;endArrow=block;startSize=8;" parent="1" edge="1">
          <mxGeometry relative="1" as="geometry">
            <mxPoint x="89.5" y="160" as="sourcePoint" />
            <Array as="points">
              <mxPoint x="180" y="160" />
            </Array>
            <mxPoint x="225" y="160" as="targetPoint" />
          </mxGeometry>
        </mxCell>
        <mxCell id="GJXDeXxpzOyA6pzPRUs3-11" value="" style="html=1;points=[];perimeter=orthogonalPerimeter;" parent="1" vertex="1">
          <mxGeometry x="506" y="200" width="10" height="40" as="geometry" />
        </mxCell>
        <mxCell id="GJXDeXxpzOyA6pzPRUs3-12" value="/metadata" style="html=1;verticalAlign=bottom;endArrow=block;entryX=0;entryY=0;" parent="1" target="GJXDeXxpzOyA6pzPRUs3-11" edge="1">
          <mxGeometry relative="1" as="geometry">
            <mxPoint x="235" y="200" as="sourcePoint" />
          </mxGeometry>
        </mxCell>
        <mxCell id="GJXDeXxpzOyA6pzPRUs3-13" value="conformance" style="html=1;verticalAlign=bottom;endArrow=open;dashed=1;endSize=8;" parent="1" edge="1">
          <mxGeometry relative="1" as="geometry">
            <mxPoint x="236" y="240" as="targetPoint" />
            <Array as="points">
              <mxPoint x="450" y="240" />
            </Array>
            <mxPoint x="509.5" y="240" as="sourcePoint" />
          </mxGeometry>
        </mxCell>
        <mxCell id="GJXDeXxpzOyA6pzPRUs3-14" value="" style="html=1;points=[];perimeter=orthogonalPerimeter;" parent="1" vertex="1">
          <mxGeometry x="365" y="280" width="10" height="80" as="geometry" />
        </mxCell>
        <mxCell id="GJXDeXxpzOyA6pzPRUs3-15" value="/authorize" style="html=1;verticalAlign=bottom;endArrow=block;entryX=0;entryY=0;" parent="1" target="GJXDeXxpzOyA6pzPRUs3-14" edge="1">
          <mxGeometry relative="1" as="geometry">
            <mxPoint x="235" y="280" as="sourcePoint" />
          </mxGeometry>
        </mxCell>
        <mxCell id="GJXDeXxpzOyA6pzPRUs3-16" value="code response" style="html=1;verticalAlign=bottom;endArrow=open;dashed=1;endSize=8;exitX=0;exitY=0.95;" parent="1" edge="1">
          <mxGeometry relative="1" as="geometry">
            <mxPoint x="235" y="360" as="targetPoint" />
            <mxPoint x="370" y="360" as="sourcePoint" />
          </mxGeometry>
        </mxCell>
        <mxCell id="GJXDeXxpzOyA6pzPRUs3-17" value="" style="html=1;points=[];perimeter=orthogonalPerimeter;" parent="1" vertex="1">
          <mxGeometry x="378" y="310" width="10" height="40" as="geometry" />
        </mxCell>
        <mxCell id="GJXDeXxpzOyA6pzPRUs3-18" value="authenticate &amp;amp; &lt;br&gt;authorize" style="edgeStyle=orthogonalEdgeStyle;html=1;align=left;spacingLeft=2;endArrow=block;rounded=0;entryX=1;entryY=0;" parent="1" target="GJXDeXxpzOyA6pzPRUs3-17" edge="1">
          <mxGeometry relative="1" as="geometry">
            <mxPoint x="380" y="290" as="sourcePoint" />
            <Array as="points">
              <mxPoint x="413" y="290" />
            </Array>
          </mxGeometry>
        </mxCell>
        <mxCell id="GJXDeXxpzOyA6pzPRUs3-19" value="" style="html=1;points=[];perimeter=orthogonalPerimeter;" parent="1" vertex="1">
          <mxGeometry x="365" y="400" width="10" height="120" as="geometry" />
        </mxCell>
        <mxCell id="GJXDeXxpzOyA6pzPRUs3-20" value="/token" style="html=1;verticalAlign=bottom;endArrow=block;entryX=0;entryY=0;" parent="1" target="GJXDeXxpzOyA6pzPRUs3-19" edge="1">
          <mxGeometry relative="1" as="geometry">
            <mxPoint x="235" y="400" as="sourcePoint" />
          </mxGeometry>
        </mxCell>
        <mxCell id="GJXDeXxpzOyA6pzPRUs3-21" value="token response" style="html=1;verticalAlign=bottom;endArrow=open;dashed=1;endSize=8;exitX=0;exitY=0.95;entryX=0.9;entryY=0.888;entryDx=0;entryDy=0;entryPerimeter=0;" parent="1" edge="1">
          <mxGeometry relative="1" as="geometry">
            <mxPoint x="234" y="520.0799999999999" as="targetPoint" />
            <mxPoint x="370" y="520" as="sourcePoint" />
          </mxGeometry>
        </mxCell>
        <mxCell id="GJXDeXxpzOyA6pzPRUs3-22" value="" style="html=1;points=[];perimeter=orthogonalPerimeter;" parent="1" vertex="1">
          <mxGeometry x="506" y="560" width="10" height="40" as="geometry" />
        </mxCell>
        <mxCell id="GJXDeXxpzOyA6pzPRUs3-23" value="/fhir/Person" style="html=1;verticalAlign=bottom;endArrow=block;entryX=0;entryY=0;exitX=1.5;exitY=0.805;exitDx=0;exitDy=0;exitPerimeter=0;" parent="1" target="GJXDeXxpzOyA6pzPRUs3-22" edge="1">
          <mxGeometry relative="1" as="geometry">
            <mxPoint x="240" y="560.05" as="sourcePoint" />
          </mxGeometry>
        </mxCell>
        <mxCell id="GJXDeXxpzOyA6pzPRUs3-24" value="FHIR object" style="html=1;verticalAlign=bottom;endArrow=open;dashed=1;endSize=8;exitX=0;exitY=0.95;" parent="1" source="GJXDeXxpzOyA6pzPRUs3-22" edge="1">
          <mxGeometry relative="1" as="geometry">
            <mxPoint x="240" y="598" as="targetPoint" />
          </mxGeometry>
        </mxCell>
        <mxCell id="GJXDeXxpzOyA6pzPRUs3-25" value="" style="html=1;points=[];perimeter=orthogonalPerimeter;fillColor=#f8cecc;strokeColor=#b85450;" parent="1" vertex="1">
          <mxGeometry x="85" y="100" width="10" height="390" as="geometry" />
        </mxCell>
        <mxCell id="GJXDeXxpzOyA6pzPRUs3-26" value="get context" style="html=1;verticalAlign=bottom;endArrow=block;exitX=-0.4;exitY=0.342;exitDx=0;exitDy=0;exitPerimeter=0;fillColor=#f8cecc;strokeColor=#b85450;strokeWidth=2;entryX=1.2;entryY=0.872;entryDx=0;entryDy=0;entryPerimeter=0;" parent="1" source="GJXDeXxpzOyA6pzPRUs3-19" target="GJXDeXxpzOyA6pzPRUs3-25" edge="1">
          <mxGeometry relative="1" as="geometry">
            <mxPoint x="20" y="405" as="sourcePoint" />
            <mxPoint x="110" y="437" as="targetPoint" />
          </mxGeometry>
        </mxCell>
        <mxCell id="GJXDeXxpzOyA6pzPRUs3-27" value="context" style="html=1;verticalAlign=bottom;endArrow=open;dashed=1;endSize=8;fillColor=#f8cecc;strokeColor=#b85450;strokeWidth=2;" parent="1" edge="1">
          <mxGeometry relative="1" as="geometry">
            <mxPoint x="370" y="480" as="targetPoint" />
            <mxPoint x="95.5" y="480" as="sourcePoint" />
            <Array as="points">
              <mxPoint x="160.5" y="480" />
            </Array>
          </mxGeometry>
        </mxCell>
        <mxCell id="9WFoRZPRGtgVekqWHSsl-1" value="context" style="rounded=0;whiteSpace=wrap;html=1;fillColor=#d5e8d4;strokeColor=#82b366;" vertex="1" parent="1">
          <mxGeometry x="60" y="120" width="60" height="20" as="geometry" />
        </mxCell>
        <mxCell id="9WFoRZPRGtgVekqWHSsl-3" value="" style="endArrow=classic;html=1;exitX=0.75;exitY=1;exitDx=0;exitDy=0;entryX=0.25;entryY=0;entryDx=0;entryDy=0;fillColor=#d5e8d4;strokeColor=#82b366;strokeWidth=2;" edge="1" parent="1" source="9WFoRZPRGtgVekqWHSsl-1" target="9WFoRZPRGtgVekqWHSsl-4">
          <mxGeometry width="50" height="50" relative="1" as="geometry">
            <mxPoint x="390" y="340" as="sourcePoint" />
            <mxPoint x="170" y="480" as="targetPoint" />
          </mxGeometry>
        </mxCell>
        <mxCell id="9WFoRZPRGtgVekqWHSsl-4" value="context" style="rounded=0;whiteSpace=wrap;html=1;fillColor=#d5e8d4;strokeColor=#82b366;" vertex="1" parent="1">
          <mxGeometry x="200" y="530" width="60" height="20" as="geometry" />
        </mxCell>
      </root>
    </mxGraphModel>
  </diagram>
</mxfile>
